# xmcd
#
# Track frame offsets:
#	150
#	14545
#	26137
#	38750
#	50115
#	63575
#	73342
#	85752
#	95662
#	109892
#	122282
#	137537
#	155625
#	166162
#	176880
#	192065
#	202982
#	214295
#	224385
#	232990
#	246837
#	258400
#	272025
#	286652
#
# Disc length: 3999 seconds
#
# Revision: 1
# Processed by: cddbd v1.4PL0 Copyright (c) Steve Scherf et al.
# Submitted via: audiograbber 1.81.01
#
DISCID=650f9d18
DTITLE=Tompall Glaser and the Glaser Brothers - The Best of 
DYEAR=1900
DGENRE=
TTITLE0=Streets of Baltimore
TTITLE1=Gone, on the Other Hand
TTITLE2=Gentle on My Mind
TTITLE3=Through the eyes of Love
TTITLE4=The Moods of Mary
TTITLE5=One of These Days
TTITLE6=California Girl
TTITLE7=All That Keeps Ya Goin'
TTITLE8=Walk Unashamed
TTITLE9=Wicked California
TTITLE10=Gone Girl
TTITLE11=Faded Love
TTITLE12=Rings
TTITLE13=Sweet, Love Me Good Woman
TTITLE14=Ain't It All Worth Living For
TTITLE15=A Girl Like You
TTITLE16=Charlie
TTITLE17=Bad, Bad, Bad Cowboy
TTITLE18=Texas Law Sez
TTITLE19=Musical Chairs
TTITLE20=Put Another Log on the Fire
TTITLE21=The Wild Side of Life
TTITLE22=T for Texas
TTITLE23=Lovin' Her Was Easier
EXTD=
EXTT0=
EXTT1=
EXTT2=
EXTT3=
EXTT4=
EXTT5=
EXTT6=
EXTT7=
EXTT8=
EXTT9=
EXTT10=
EXTT11=
EXTT12=
EXTT13=
EXTT14=
EXTT15=
EXTT16=
EXTT17=
EXTT18=
EXTT19=
EXTT20=
EXTT21=
EXTT22=
EXTT23=
PLAYORDER=
